<?xml version="1.0" encoding="UTF-8" ?>
<svg version="1.1" width="40" height="57" xmlns="http://www.w3.org/2000/svg" shape-rendering="crispEdges">
<rect x="15" y="0" width="8" height="5" fill="#25131A" />
<rect x="14" y="1" width="1" height="4" fill="#25131A" />
<rect x="23" y="1" width="1" height="6" fill="#25131A" />
<rect x="12" y="2" width="2" height="4" fill="#25131A" />
<rect x="24" y="2" width="1" height="10" fill="#25131A" />
<rect x="11" y="3" width="1" height="20" fill="#25131A" />
<rect x="25" y="3" width="1" height="13" fill="#25131A" />
<rect x="10" y="4" width="1" height="20" fill="#25131A" />
<rect x="9" y="5" width="1" height="20" fill="#25131A" />
<rect x="16" y="5" width="7" height="1" fill="#25131A" />
<rect x="26" y="5" width="1" height="14" fill="#25131A" />
<rect x="8" y="6" width="1" height="4" fill="#25131A" />
<rect x="17" y="6" width="1" height="1" fill="#25131A" />
<rect x="19" y="6" width="4" height="1" fill="#25131A" />
<rect x="20" y="7" width="1" height="1" fill="#25131A" />
<rect x="22" y="7" width="1" height="1" fill="#25131A" />
<rect x="27" y="7" width="1" height="13" fill="#25131A" />
<rect x="12" y="12" width="2" height="3" fill="#25131A" />
<rect x="14" y="13" width="3" height="3" fill="#25131A" />
<rect x="24" y="13" width="1" height="3" fill="#25131A" />
<rect x="17" y="14" width="7" height="3" fill="#25131A" />
<rect x="28" y="16" width="1" height="5" fill="#25131A" />
<rect x="17" y="17" width="3" height="36" fill="#25131A" />
<rect x="29" y="19" width="1" height="3" fill="#25131A" />
<rect x="30" y="20" width="1" height="3" fill="#25131A" />
<rect x="31" y="21" width="1" height="3" fill="#25131A" />
<rect x="32" y="22" width="7" height="3" fill="#25131A" />
<rect x="1" y="23" width="3" height="3" fill="#25131A" />
<rect x="7" y="23" width="2" height="3" fill="#25131A" />
<rect x="39" y="23" width="1" height="1" fill="#25131A" />
<rect x="0" y="24" width="1" height="1" fill="#25131A" />
<rect x="4" y="24" width="3" height="3" fill="#25131A" />
<rect x="1" y="31" width="16" height="3" fill="#25131A" />
<rect x="20" y="31" width="17" height="3" fill="#25131A" />
<rect x="0" y="32" width="1" height="1" fill="#25131A" />
<rect x="37" y="32" width="1" height="1" fill="#25131A" />
<rect x="16" y="50" width="1" height="3" fill="#25131A" />
<rect x="13" y="51" width="3" height="3" fill="#25131A" />
<rect x="20" y="51" width="2" height="3" fill="#25131A" />
<rect x="11" y="52" width="2" height="3" fill="#25131A" />
<rect x="22" y="52" width="3" height="3" fill="#25131A" />
<rect x="10" y="53" width="1" height="3" fill="#25131A" />
<rect x="19" y="53" width="1" height="1" fill="#25131A" />
<rect x="25" y="53" width="3" height="3" fill="#25131A" />
<rect x="8" y="54" width="2" height="3" fill="#25131A" />
<rect x="28" y="54" width="2" height="3" fill="#25131A" />
<rect x="7" y="55" width="1" height="1" fill="#25131A" />
<rect x="30" y="55" width="1" height="1" fill="#25131A" />
</svg>