<?xml version="1.0" encoding="UTF-8" ?>
<svg version="1.1" width="512" height="512" xmlns="http://www.w3.org/2000/svg" shape-rendering="crispEdges">
<rect x="108" y="96" width="228" height="10" fill="#222034" />
<rect x="99" y="106" width="9" height="9" fill="#222034" />
<rect x="108" y="106" width="228" height="54" fill="#D92536" />
<rect x="336" y="106" width="9" height="9" fill="#222034" />
<rect x="89" y="115" width="10" height="36" fill="#222034" />
<rect x="99" y="115" width="9" height="36" fill="#D92536" />
<rect x="336" y="115" width="9" height="36" fill="#D92536" />
<rect x="345" y="115" width="9" height="36" fill="#222034" />
<rect x="99" y="151" width="9" height="9" fill="#222034" />
<rect x="336" y="151" width="9" height="19" fill="#222034" />
<rect x="108" y="160" width="91" height="10" fill="#222034" />
<rect x="199" y="160" width="55" height="28" fill="#D92536" />
<rect x="254" y="160" width="82" height="10" fill="#222034" />
<rect x="345" y="160" width="64" height="10" fill="#222034" />
<rect x="190" y="170" width="9" height="9" fill="#222034" />
<rect x="254" y="170" width="9" height="18" fill="#222034" />
<rect x="263" y="170" width="146" height="36" fill="#639BFF" />
<rect x="409" y="170" width="9" height="9" fill="#222034" />
<rect x="181" y="179" width="9" height="18" fill="#222034" />
<rect x="190" y="179" width="9" height="137" fill="#D92536" />
<rect x="409" y="179" width="9" height="64" fill="#639BFF" />
<rect x="418" y="179" width="9" height="9" fill="#222034" />
<rect x="199" y="188" width="46" height="18" fill="#D92536" />
<rect x="245" y="188" width="9" height="18" fill="#222034" />
<rect x="254" y="188" width="9" height="119" fill="#639BFF" />
<rect x="418" y="188" width="9" height="46" fill="#639BFF" />
<rect x="427" y="188" width="9" height="46" fill="#222034" />
<rect x="172" y="197" width="9" height="18" fill="#222034" />
<rect x="181" y="197" width="9" height="137" fill="#D92536" />
<rect x="199" y="206" width="37" height="18" fill="#D92536" />
<rect x="236" y="206" width="9" height="18" fill="#222034" />
<rect x="245" y="206" width="9" height="110" fill="#639BFF" />
<rect x="263" y="206" width="18" height="18" fill="#639BFF" />
<rect x="281" y="206" width="82" height="9" fill="#222034" />
<rect x="363" y="206" width="46" height="9" fill="#639BFF" />
<rect x="163" y="215" width="9" height="28" fill="#222034" />
<rect x="172" y="215" width="9" height="137" fill="#D92536" />
<rect x="281" y="215" width="9" height="9" fill="#222034" />
<rect x="363" y="215" width="10" height="9" fill="#222034" />
<rect x="373" y="215" width="36" height="37" fill="#639BFF" />
<rect x="199" y="224" width="27" height="28" fill="#D92536" />
<rect x="226" y="224" width="10" height="28" fill="#222034" />
<rect x="236" y="224" width="9" height="110" fill="#639BFF" />
<rect x="263" y="224" width="9" height="19" fill="#639BFF" />
<rect x="272" y="224" width="9" height="19" fill="#222034" />
<rect x="354" y="224" width="9" height="10" fill="#222034" />
<rect x="363" y="224" width="10" height="64" fill="#639BFF" />
<rect x="345" y="234" width="9" height="9" fill="#222034" />
<rect x="354" y="234" width="9" height="54" fill="#639BFF" />
<rect x="418" y="234" width="9" height="9" fill="#222034" />
<rect x="153" y="243" width="10" height="18" fill="#222034" />
<rect x="163" y="243" width="9" height="119" fill="#D92536" />
<rect x="263" y="243" width="9" height="9" fill="#222034" />
<rect x="336" y="243" width="9" height="9" fill="#222034" />
<rect x="345" y="243" width="9" height="164" fill="#639BFF" />
<rect x="409" y="243" width="9" height="9" fill="#222034" />
<rect x="199" y="252" width="18" height="18" fill="#D92536" />
<rect x="217" y="252" width="9" height="18" fill="#222034" />
<rect x="226" y="252" width="10" height="100" fill="#639BFF" />
<rect x="263" y="252" width="9" height="55" fill="#639BFF" />
<rect x="272" y="252" width="64" height="9" fill="#222034" />
<rect x="336" y="252" width="9" height="155" fill="#639BFF" />
<rect x="373" y="252" width="27" height="9" fill="#639BFF" />
<rect x="400" y="252" width="9" height="9" fill="#222034" />
<rect x="144" y="261" width="9" height="27" fill="#222034" />
<rect x="153" y="261" width="10" height="101" fill="#D92536" />
<rect x="272" y="261" width="64" height="46" fill="#639BFF" />
<rect x="373" y="261" width="18" height="9" fill="#639BFF" />
<rect x="391" y="261" width="9" height="9" fill="#222034" />
<rect x="199" y="270" width="9" height="28" fill="#D92536" />
<rect x="208" y="270" width="9" height="28" fill="#222034" />
<rect x="217" y="270" width="9" height="137" fill="#639BFF" />
<rect x="373" y="270" width="9" height="9" fill="#639BFF" />
<rect x="382" y="270" width="9" height="9" fill="#222034" />
<rect x="373" y="279" width="9" height="9" fill="#222034" />
<rect x="135" y="288" width="9" height="19" fill="#222034" />
<rect x="144" y="288" width="9" height="74" fill="#D92536" />
<rect x="354" y="288" width="19" height="10" fill="#222034" />
<rect x="199" y="298" width="9" height="18" fill="#222034" />
<rect x="208" y="298" width="9" height="109" fill="#639BFF" />
<rect x="354" y="298" width="19" height="82" fill="#639BFF" />
<rect x="373" y="298" width="9" height="9" fill="#222034" />
<rect x="126" y="307" width="9" height="18" fill="#222034" />
<rect x="135" y="307" width="9" height="55" fill="#D92536" />
<rect x="254" y="307" width="64" height="9" fill="#222034" />
<rect x="318" y="307" width="18" height="9" fill="#639BFF" />
<rect x="373" y="307" width="9" height="55" fill="#639BFF" />
<rect x="382" y="307" width="9" height="55" fill="#222034" />
<rect x="190" y="316" width="9" height="18" fill="#222034" />
<rect x="199" y="316" width="9" height="91" fill="#639BFF" />
<rect x="245" y="316" width="9" height="18" fill="#222034" />
<rect x="318" y="316" width="9" height="9" fill="#222034" />
<rect x="327" y="316" width="9" height="9" fill="#639BFF" />
<rect x="117" y="325" width="9" height="27" fill="#222034" />
<rect x="126" y="325" width="9" height="27" fill="#D92536" />
<rect x="327" y="325" width="9" height="27" fill="#222034" />
<rect x="181" y="334" width="9" height="18" fill="#222034" />
<rect x="190" y="334" width="9" height="73" fill="#639BFF" />
<rect x="236" y="334" width="9" height="18" fill="#222034" />
<rect x="126" y="352" width="9" height="10" fill="#222034" />
<rect x="172" y="352" width="9" height="10" fill="#222034" />
<rect x="181" y="352" width="9" height="55" fill="#639BFF" />
<rect x="226" y="352" width="10" height="19" fill="#222034" />
<rect x="318" y="352" width="9" height="10" fill="#222034" />
<rect x="327" y="352" width="9" height="55" fill="#639BFF" />
<rect x="135" y="362" width="37" height="9" fill="#222034" />
<rect x="172" y="362" width="9" height="45" fill="#639BFF" />
<rect x="236" y="362" width="82" height="9" fill="#222034" />
<rect x="318" y="362" width="9" height="45" fill="#639BFF" />
<rect x="373" y="362" width="9" height="18" fill="#222034" />
<rect x="153" y="371" width="10" height="27" fill="#222034" />
<rect x="163" y="371" width="9" height="27" fill="#639BFF" />
<rect x="226" y="371" width="92" height="36" fill="#639BFF" />
<rect x="354" y="380" width="9" height="18" fill="#639BFF" />
<rect x="363" y="380" width="10" height="18" fill="#222034" />
<rect x="163" y="398" width="9" height="9" fill="#222034" />
<rect x="354" y="398" width="9" height="9" fill="#222034" />
<rect x="172" y="407" width="182" height="9" fill="#222034" />
</svg>