<?xml version="1.0" encoding="UTF-8" ?>
<svg version="1.1" width="32" height="32" xmlns="http://www.w3.org/2000/svg" shape-rendering="crispEdges">
<rect x="18" y="3" width="11" height="4" fill="#0F1679" />
<rect x="17" y="4" width="1" height="2" fill="#0F1679" />
<rect x="29" y="4" width="1" height="11" fill="#0F1679" />
<rect x="23" y="7" width="6" height="3" fill="#0F1679" />
<rect x="22" y="8" width="1" height="5" fill="#0F1679" />
<rect x="21" y="9" width="1" height="5" fill="#0F1679" />
<rect x="10" y="10" width="6" height="4" fill="#0F1679" />
<rect x="20" y="10" width="1" height="16" fill="#0F1679" />
<rect x="23" y="10" width="2" height="1" fill="#0F1679" />
<rect x="26" y="10" width="3" height="5" fill="#0F1679" />
<rect x="8" y="11" width="2" height="4" fill="#0F1679" />
<rect x="16" y="11" width="2" height="4" fill="#0F1679" />
<rect x="19" y="11" width="1" height="16" fill="#0F1679" />
<rect x="23" y="11" width="1" height="1" fill="#0F1679" />
<rect x="7" y="12" width="1" height="6" fill="#0F1679" />
<rect x="18" y="12" width="1" height="6" fill="#0F1679" />
<rect x="6" y="13" width="1" height="14" fill="#0F1679" />
<rect x="5" y="14" width="1" height="12" fill="#0F1679" />
<rect x="10" y="14" width="1" height="1" fill="#0F1679" />
<rect x="15" y="14" width="1" height="1" fill="#0F1679" />
<rect x="4" y="15" width="1" height="10" fill="#0F1679" />
<rect x="8" y="15" width="1" height="1" fill="#0F1679" />
<rect x="17" y="15" width="1" height="1" fill="#0F1679" />
<rect x="21" y="15" width="1" height="10" fill="#0F1679" />
<rect x="27" y="15" width="2" height="1" fill="#0F1679" />
<rect x="3" y="17" width="1" height="6" fill="#0F1679" />
<rect x="22" y="17" width="1" height="6" fill="#0F1679" />
<rect x="7" y="22" width="1" height="6" fill="#0F1679" />
<rect x="18" y="22" width="1" height="6" fill="#0F1679" />
<rect x="8" y="24" width="1" height="5" fill="#0F1679" />
<rect x="17" y="24" width="1" height="5" fill="#0F1679" />
<rect x="9" y="25" width="2" height="4" fill="#0F1679" />
<rect x="15" y="25" width="2" height="4" fill="#0F1679" />
<rect x="11" y="26" width="4" height="4" fill="#0F1679" />
<rect x="10" y="29" width="1" height="1" fill="#0F1679" />
<rect x="15" y="29" width="1" height="1" fill="#0F1679" />
</svg>